<mxfile host="Electron" agent="Mozilla/5.0 (X11; Linux x86_64) AppleWebKit/537.36 (KHTML, like Gecko) draw.io/24.7.17 Chrome/128.0.6613.36 Electron/32.0.1 Safari/537.36" version="24.7.17">
  <diagram name="PÃ¡gina-1" id="JnAmAAlcMplgWwZxEFWR">
    <mxGraphModel dx="3022" dy="2007" grid="1" gridSize="10" guides="1" tooltips="1" connect="1" arrows="1" fold="1" page="1" pageScale="1" pageWidth="827" pageHeight="1169" math="0" shadow="0">
      <root>
        <mxCell id="0" />
        <mxCell id="1" parent="0" />
        <mxCell id="ucri7VdKYtl2Kycha0CK-2" value="CARGAR&amp;nbsp;&lt;div&gt;PACIENTE&lt;/div&gt;" style="ellipse;whiteSpace=wrap;html=1;" vertex="1" parent="1">
          <mxGeometry x="250" y="170" width="120" height="80" as="geometry" />
        </mxCell>
        <mxCell id="ucri7VdKYtl2Kycha0CK-3" value="CARGAR&amp;nbsp;&lt;div&gt;CAPACIDAD&lt;/div&gt;" style="ellipse;whiteSpace=wrap;html=1;" vertex="1" parent="1">
          <mxGeometry y="-100" width="120" height="80" as="geometry" />
        </mxCell>
        <mxCell id="ucri7VdKYtl2Kycha0CK-7" style="edgeStyle=orthogonalEdgeStyle;rounded=0;orthogonalLoop=1;jettySize=auto;html=1;exitX=1;exitY=0.3333333333333333;exitDx=0;exitDy=0;exitPerimeter=0;endArrow=none;endFill=0;" edge="1" parent="1" source="ucri7VdKYtl2Kycha0CK-4" target="ucri7VdKYtl2Kycha0CK-2">
          <mxGeometry relative="1" as="geometry" />
        </mxCell>
        <mxCell id="ucri7VdKYtl2Kycha0CK-4" value="Local&lt;div&gt;Responsable&lt;/div&gt;" style="shape=umlActor;verticalLabelPosition=bottom;verticalAlign=top;html=1;outlineConnect=0;" vertex="1" parent="1">
          <mxGeometry x="40" y="130" width="30" height="60" as="geometry" />
        </mxCell>
        <mxCell id="ucri7VdKYtl2Kycha0CK-8" style="edgeStyle=orthogonalEdgeStyle;rounded=0;orthogonalLoop=1;jettySize=auto;html=1;exitX=1;exitY=0.3333333333333333;exitDx=0;exitDy=0;exitPerimeter=0;endArrow=none;endFill=0;" edge="1" parent="1" source="ucri7VdKYtl2Kycha0CK-5" target="ucri7VdKYtl2Kycha0CK-2">
          <mxGeometry relative="1" as="geometry" />
        </mxCell>
        <mxCell id="ucri7VdKYtl2Kycha0CK-5" value="SIHC" style="shape=umlActor;verticalLabelPosition=bottom;verticalAlign=top;html=1;outlineConnect=0;" vertex="1" parent="1">
          <mxGeometry x="40" y="250" width="30" height="60" as="geometry" />
        </mxCell>
        <mxCell id="ucri7VdKYtl2Kycha0CK-9" value="&lt;h1 style=&quot;margin-top: 0px;&quot;&gt;Especificacion Cargar Paciente&lt;/h1&gt;&lt;p style=&quot;text-align: left;&quot;&gt;Nombre: Cargar Paciente&lt;/p&gt;&lt;p style=&quot;text-align: left;&quot;&gt;descripcion:este caso de uso sirve para cargar pacientes al hospital.&lt;/p&gt;&lt;p style=&quot;text-align: left;&quot;&gt;Trigger: Este caso de uso comienza cuando el local responsable quiere cargar un paciente al sistema&lt;/p&gt;&lt;p style=&quot;text-align: left;&quot;&gt;Actor Primario: Local Responsable&lt;/p&gt;&lt;p style=&quot;text-align: left;&quot;&gt;Actor Secundario: SIHC (Sistema integrado de historias clinicas)&lt;/p&gt;&lt;p style=&quot;text-align: left;&quot;&gt;&lt;br&gt;&lt;/p&gt;&lt;p style=&quot;text-align: left;&quot;&gt;Curso basico:&lt;/p&gt;&lt;p style=&quot;text-align: left;&quot;&gt;1 )&amp;nbsp;&lt;span style=&quot;background-color: rgb(255, 255, 255); font-size: 11px; text-wrap: nowrap; text-align: center;&quot;&gt;&lt;b&gt;PTO1EXT&lt;/b&gt;&lt;/span&gt;&lt;/p&gt;&lt;p style=&quot;text-align: left;&quot;&gt;2)El sistema solicita el DNI del paciente&lt;/p&gt;&lt;p style=&quot;text-align: left;&quot;&gt;3)&amp;nbsp; El sistema interactua con el SIHC para obtener el historial clinico&lt;/p&gt;&lt;p style=&quot;text-align: left;&quot;&gt;4 ) El sistema obtiene el historial clinico&amp;nbsp;&lt;/p&gt;&lt;p style=&quot;text-align: left;&quot;&gt;5)&amp;nbsp; El sistema solicita al local responsabie:&amp;nbsp;&lt;/p&gt;&lt;p style=&quot;&quot;&gt;&lt;/p&gt;&lt;ul&gt;&lt;li style=&quot;text-align: left;&quot;&gt;*DIa y hora del ingreso del paciente&lt;/li&gt;&lt;li style=&quot;text-align: left;&quot;&gt;*Enfermedad enfermedad que esta cursando&lt;/li&gt;&lt;li style=&quot;text-align: left;&quot;&gt;*El tipo de cama que ocupa(general,terapia intermedia o intensiva)&lt;/li&gt;&lt;/ul&gt;&lt;p&gt;&lt;/p&gt;&lt;p style=&quot;text-align: left;&quot;&gt;6) EL responsable local response la solicitud&lt;span style=&quot;background-color: initial;&quot;&gt;)&lt;/span&gt;&lt;/p&gt;&lt;p style=&quot;text-align: left;&quot;&gt;&lt;span style=&quot;background-color: initial;&quot;&gt;7) Este caso de uso finaliza&lt;/span&gt;&lt;/p&gt;&lt;p style=&quot;text-align: left;&quot;&gt;&lt;span style=&quot;background-color: initial;&quot;&gt;&lt;br&gt;&lt;/span&gt;&lt;/p&gt;&lt;p style=&quot;&quot;&gt;&lt;span style=&quot;background-color: initial;&quot;&gt;&lt;b&gt;&lt;font style=&quot;font-size: 14px;&quot;&gt;Curso alternativo&amp;nbsp;&lt;/font&gt;&lt;/b&gt;&lt;/span&gt;&lt;/p&gt;&lt;p style=&quot;&quot;&gt;&lt;span style=&quot;font-size: 14px;&quot;&gt;3) El paciente no tiene historial clinico&lt;/span&gt;&lt;/p&gt;&lt;p style=&quot;&quot;&gt;&lt;span style=&quot;font-size: 14px;&quot;&gt;3.1)El sistema solicita&amp;nbsp; al local responsable los siguientes datos del paciente :&lt;/span&gt;&lt;/p&gt;&lt;p style=&quot;&quot;&gt;&lt;/p&gt;&lt;ul&gt;&lt;ul&gt;&lt;li style=&quot;text-align: left;&quot;&gt;&lt;span style=&quot;font-size: 14px;&quot;&gt;Nombre&lt;/span&gt;&lt;/li&gt;&lt;li style=&quot;text-align: left;&quot;&gt;&lt;span style=&quot;font-size: 14px;&quot;&gt;Apellido&lt;/span&gt;&lt;/li&gt;&lt;li style=&quot;text-align: left;&quot;&gt;&lt;span style=&quot;font-size: 14px;&quot;&gt;DIreccion&amp;nbsp;&lt;/span&gt;&lt;/li&gt;&lt;li style=&quot;text-align: left;&quot;&gt;&lt;span style=&quot;font-size: 14px;&quot;&gt;Fecha de Nacimiento&lt;/span&gt;&lt;/li&gt;&lt;/ul&gt;&lt;/ul&gt;&lt;blockquote style=&quot;margin: 0 0 0 40px; border: none; padding: 0px;&quot;&gt;&lt;div style=&quot;text-align: left;&quot;&gt;&lt;span style=&quot;font-size: 14px;&quot;&gt;3.2)El local responsable contesta la solicutud del sistema&lt;/span&gt;&lt;/div&gt;&lt;div style=&quot;text-align: left;&quot;&gt;&lt;span style=&quot;font-size: 14px;&quot;&gt;3.4) EL sistema envia los datos al SIHC para crear la historia clinica&lt;/span&gt;&lt;/div&gt;&lt;/blockquote&gt;&lt;div&gt;&lt;span style=&quot;font-size: 14px;&quot;&gt;&lt;br&gt;&lt;/span&gt;&lt;/div&gt;&lt;p&gt;&lt;/p&gt;&lt;p style=&quot;&quot;&gt;&lt;br&gt;&lt;/p&gt;&lt;p style=&quot;text-align: left;&quot;&gt;&lt;br&gt;&lt;/p&gt;" style="text;html=1;whiteSpace=wrap;overflow=hidden;rounded=0;align=center;" vertex="1" parent="1">
          <mxGeometry x="60" y="380" width="510" height="870" as="geometry" />
        </mxCell>
        <mxCell id="ucri7VdKYtl2Kycha0CK-10" value="&amp;lt;&amp;lt;extends&amp;gt;&amp;gt;&lt;div&gt;PTO1EXT&lt;/div&gt;&lt;div&gt;si no se cargo la capidad del hospital&lt;/div&gt;" style="edgeStyle=orthogonalEdgeStyle;rounded=0;orthogonalLoop=1;jettySize=auto;html=1;entryX=0.417;entryY=0;entryDx=0;entryDy=0;entryPerimeter=0;endArrow=open;endFill=0;endSize=10;dashed=1;dashPattern=8 8;" edge="1" parent="1" source="ucri7VdKYtl2Kycha0CK-3" target="ucri7VdKYtl2Kycha0CK-2">
          <mxGeometry x="-0.0667" y="10" relative="1" as="geometry">
            <mxPoint as="offset" />
          </mxGeometry>
        </mxCell>
        <mxCell id="ucri7VdKYtl2Kycha0CK-11" value="Se podria hacer otro caso de uso crear historia clinica asi extiende cargar paciente?" style="text;html=1;align=center;verticalAlign=middle;whiteSpace=wrap;rounded=0;" vertex="1" parent="1">
          <mxGeometry x="600" y="610" width="170" height="150" as="geometry" />
        </mxCell>
        <mxCell id="ucri7VdKYtl2Kycha0CK-12" value="&lt;h1 style=&quot;margin-top: 0px;&quot;&gt;Especificacion Cargar Capacidad&lt;/h1&gt;&lt;div&gt;&lt;br&gt;&lt;/div&gt;&lt;div style=&quot;text-align: left;&quot;&gt;Nombre: Cargar Capacidad&lt;/div&gt;&lt;div style=&quot;text-align: left;&quot;&gt;Descripcion: Este caso de uso se utiliza para cargar/ampliar&amp;nbsp; la capidad de camas de un hospital&lt;/div&gt;&lt;div style=&quot;text-align: left;&quot;&gt;Actor Primario: Local Responsable&lt;/div&gt;&lt;div style=&quot;text-align: left;&quot;&gt;Trigger: Este caso de uso comienza cuando el local responsable quiero cargar la capacidad del hospital.&lt;/div&gt;&lt;div style=&quot;text-align: left;&quot;&gt;&lt;br&gt;&lt;/div&gt;&lt;div style=&quot;text-align: left;&quot;&gt;Curso basico&lt;/div&gt;&lt;div style=&quot;text-align: left;&quot;&gt;&lt;br&gt;&lt;/div&gt;&lt;div style=&quot;text-align: left;&quot;&gt;1) El sistema solicita el total de camas al local responsable&lt;/div&gt;&lt;div style=&quot;text-align: left;&quot;&gt;2) El local responsable responde la solicitud&lt;/div&gt;&lt;div style=&quot;text-align: left;&quot;&gt;3)El sistema por cada cama solicita el tipo:&lt;/div&gt;&lt;div style=&quot;text-align: left;&quot;&gt;&lt;ul&gt;&lt;li&gt;sala general&lt;/li&gt;&lt;li&gt;terapia intermedia&amp;nbsp;&lt;/li&gt;&lt;li&gt;terapia intensiva&lt;/li&gt;&lt;/ul&gt;&lt;/div&gt;&lt;div style=&quot;text-align: left;&quot;&gt;4) El local responsable responde a la solicitud&lt;/div&gt;&lt;div style=&quot;text-align: left;&quot;&gt;5)El sistema guarda la capacidad total de camas&lt;/div&gt;&lt;div style=&quot;text-align: left;&quot;&gt;5) este caso de uso finaliza&lt;/div&gt;&lt;div style=&quot;text-align: left;&quot;&gt;&lt;br&gt;&lt;/div&gt;&lt;div style=&quot;&quot;&gt;&lt;span style=&quot;background-color: initial;&quot;&gt;Casos de usos extendidos:&lt;/span&gt;&lt;/div&gt;&lt;div style=&quot;&quot;&gt;&lt;span style=&quot;background-color: initial;&quot;&gt;Extiende el caso de uso cargar paciente cuando se quiere cargar/ampliar la capacidad del hospital&lt;/span&gt;&lt;br&gt;&lt;/div&gt;" style="text;html=1;whiteSpace=wrap;overflow=hidden;rounded=0;align=center;" vertex="1" parent="1">
          <mxGeometry x="640" y="-25" width="490" height="470" as="geometry" />
        </mxCell>
        <mxCell id="ucri7VdKYtl2Kycha0CK-23" style="edgeStyle=orthogonalEdgeStyle;rounded=0;orthogonalLoop=1;jettySize=auto;html=1;exitX=0;exitY=0.3333333333333333;exitDx=0;exitDy=0;exitPerimeter=0;entryX=1;entryY=0.5;entryDx=0;entryDy=0;endArrow=none;endFill=0;" edge="1" parent="1" source="ucri7VdKYtl2Kycha0CK-13" target="ucri7VdKYtl2Kycha0CK-21">
          <mxGeometry relative="1" as="geometry" />
        </mxCell>
        <mxCell id="ucri7VdKYtl2Kycha0CK-13" value="IT&lt;div&gt;Responsable&lt;/div&gt;" style="shape=umlActor;verticalLabelPosition=bottom;verticalAlign=top;html=1;outlineConnect=0;" vertex="1" parent="1">
          <mxGeometry x="-181" y="128" width="30" height="60" as="geometry" />
        </mxCell>
        <mxCell id="ucri7VdKYtl2Kycha0CK-14" value="AGREGAR&lt;div&gt;HOSPITAL&lt;/div&gt;" style="ellipse;whiteSpace=wrap;html=1;" vertex="1" parent="1">
          <mxGeometry x="-220" y="-100" width="120" height="80" as="geometry" />
        </mxCell>
        <mxCell id="ucri7VdKYtl2Kycha0CK-20" style="edgeStyle=orthogonalEdgeStyle;rounded=0;orthogonalLoop=1;jettySize=auto;html=1;exitX=0.5;exitY=0;exitDx=0;exitDy=0;exitPerimeter=0;entryX=0.45;entryY=1.038;entryDx=0;entryDy=0;entryPerimeter=0;endArrow=none;endFill=0;" edge="1" parent="1" source="ucri7VdKYtl2Kycha0CK-13" target="ucri7VdKYtl2Kycha0CK-14">
          <mxGeometry relative="1" as="geometry" />
        </mxCell>
        <mxCell id="ucri7VdKYtl2Kycha0CK-21" value="CREAR&lt;div&gt;USUARIO&lt;/div&gt;" style="ellipse;whiteSpace=wrap;html=1;" vertex="1" parent="1">
          <mxGeometry x="-460" y="108" width="120" height="80" as="geometry" />
        </mxCell>
        <mxCell id="ucri7VdKYtl2Kycha0CK-22" value="MOSTRAR MAPA" style="ellipse;whiteSpace=wrap;html=1;" vertex="1" parent="1">
          <mxGeometry x="-460" y="430" width="120" height="80" as="geometry" />
        </mxCell>
        <mxCell id="ucri7VdKYtl2Kycha0CK-28" value="&lt;div&gt;&amp;lt;&amp;lt;extends&amp;gt;&amp;gt;&lt;/div&gt;PTO2EXT&lt;div&gt;quiere acceder al reporte (link)&lt;/div&gt;" style="edgeStyle=orthogonalEdgeStyle;rounded=0;orthogonalLoop=1;jettySize=auto;html=1;exitX=0.5;exitY=1;exitDx=0;exitDy=0;entryX=0.5;entryY=0;entryDx=0;entryDy=0;dashed=1;dashPattern=8 8;endArrow=open;endFill=0;endSize=11;" edge="1" parent="1" source="ucri7VdKYtl2Kycha0CK-24" target="ucri7VdKYtl2Kycha0CK-22">
          <mxGeometry relative="1" as="geometry" />
        </mxCell>
        <mxCell id="ucri7VdKYtl2Kycha0CK-24" value="GENERAR&lt;div&gt;REPORTE&lt;/div&gt;" style="ellipse;whiteSpace=wrap;html=1;" vertex="1" parent="1">
          <mxGeometry x="-460" y="240" width="120" height="80" as="geometry" />
        </mxCell>
        <mxCell id="ucri7VdKYtl2Kycha0CK-25" value="RELOJ&amp;nbsp;&lt;div&gt;LUNES 8 AM&lt;/div&gt;" style="shape=umlActor;verticalLabelPosition=bottom;verticalAlign=top;html=1;outlineConnect=0;" vertex="1" parent="1">
          <mxGeometry x="-181" y="250" width="30" height="60" as="geometry" />
        </mxCell>
        <mxCell id="ucri7VdKYtl2Kycha0CK-27" style="edgeStyle=orthogonalEdgeStyle;rounded=0;orthogonalLoop=1;jettySize=auto;html=1;exitX=0;exitY=0.3333333333333333;exitDx=0;exitDy=0;exitPerimeter=0;entryX=1.025;entryY=0.375;entryDx=0;entryDy=0;entryPerimeter=0;endArrow=none;endFill=0;" edge="1" parent="1" source="ucri7VdKYtl2Kycha0CK-25" target="ucri7VdKYtl2Kycha0CK-24">
          <mxGeometry relative="1" as="geometry" />
        </mxCell>
        <mxCell id="ucri7VdKYtl2Kycha0CK-29" value="&lt;h1 style=&quot;margin-top: 0px;&quot;&gt;Especificacion Generar Reporte&lt;/h1&gt;&lt;div style=&quot;text-align: left;&quot;&gt;Nombre: Generar&amp;nbsp; Reporte&lt;/div&gt;&lt;div style=&quot;text-align: left;&quot;&gt;Descripcion: Este caso de uso sirve para generar un reporte de las cantidad de camas en cada hospital.&lt;/div&gt;&lt;div style=&quot;text-align: left;&quot;&gt;Actor Primario: Ministerio de Salud&lt;/div&gt;&lt;div style=&quot;text-align: left;&quot;&gt;Actor:Secundario: Reloj&lt;/div&gt;&lt;div style=&quot;text-align: left;&quot;&gt;Trigger: Este caso de uso comienza cuando se solicita un reporte&lt;/div&gt;&lt;div style=&quot;text-align: left;&quot;&gt;&lt;br&gt;&lt;/div&gt;&lt;div style=&quot;text-align: left;&quot;&gt;Curso basico:&lt;/div&gt;&lt;div style=&quot;text-align: left;&quot;&gt;&lt;br&gt;&lt;/div&gt;&lt;div style=&quot;text-align: left;&quot;&gt;1) El sistema genera un reporte todos los lunes a las 8 am&lt;/div&gt;&lt;div style=&quot;text-align: left;&quot;&gt;2)El sistema genera el reporte con la c&lt;span style=&quot;background-color: initial;&quot;&gt;antidad de camas ocupadas/desocupadas en cada hospital discretizado por el tipo de cama&lt;/span&gt;&lt;/div&gt;&lt;div style=&quot;text-align: left;&quot;&gt;&lt;span style=&quot;background-color: initial;&quot;&gt;3)El sistema ordena el reporte por ciudad (Orden alfabetico ascendente)&lt;/span&gt;&lt;/div&gt;&lt;div style=&quot;text-align: left;&quot;&gt;4)El reporte se guarda en Google Drive propiedad del Ministerio de Salud&lt;/div&gt;&lt;div style=&quot;text-align: left;&quot;&gt;5)El sistema genera un link para acceder al reporte.&lt;/div&gt;&lt;div style=&quot;text-align: left;&quot;&gt;6)Este caso de uso finaliza&lt;/div&gt;&lt;div style=&quot;text-align: left;&quot;&gt;&lt;br&gt;&lt;/div&gt;&lt;div style=&quot;text-align: left;&quot;&gt;Casos de uso que extiende:&lt;/div&gt;&lt;div style=&quot;text-align: left;&quot;&gt;&lt;br&gt;&lt;/div&gt;&lt;div style=&quot;text-align: left;&quot;&gt;Exitende el caso de uso Mostrar Mapa cuando este quiere acceder a un link (Reporte)&lt;/div&gt;&lt;div style=&quot;text-align: left;&quot;&gt;&lt;br&gt;&lt;/div&gt;&lt;div style=&quot;text-align: left;&quot;&gt;&lt;br&gt;&lt;/div&gt;" style="text;html=1;whiteSpace=wrap;overflow=hidden;rounded=0;align=center;" vertex="1" parent="1">
          <mxGeometry x="-1020" y="230" width="460" height="410" as="geometry" />
        </mxCell>
        <mxCell id="ucri7VdKYtl2Kycha0CK-30" value="&lt;h1 style=&quot;margin-top: 0px;&quot;&gt;&lt;span style=&quot;background-color: initial;&quot;&gt;Especificacion Mostrar Mapa&lt;/span&gt;&lt;br&gt;&lt;/h1&gt;&lt;div&gt;&lt;span style=&quot;background-color: initial;&quot;&gt;&lt;br&gt;&lt;/span&gt;&lt;/div&gt;&lt;div&gt;Nombre: Mostrar Mapa&lt;/div&gt;&lt;div&gt;Descripcion: Este caso de uso sirve para mostrar un mapa de calor de la provincia, para ver la disponibilidad de camas y/o filtrar por camas de cada uno de los hospitales&lt;/div&gt;&lt;div&gt;Actor Primero: MInesterio de Salud&amp;nbsp;&lt;/div&gt;&lt;div&gt;Trigger: Este caso de uso comienza cuando el ministerio de salud quiere ver un mapa de calor de la provincia&lt;/div&gt;&lt;div&gt;&lt;br&gt;&lt;/div&gt;&lt;div&gt;Curso Basico:&lt;/div&gt;&lt;div&gt;&lt;br&gt;&lt;/div&gt;&lt;div&gt;1) El sistema genera un mapa de calor (Tonalidades: rojo a verde) indicando la disponibilidad o no de camas en cada uno de los hospitales.&lt;/div&gt;&lt;div&gt;2)El Mapa debera permitir filtrar por tipo de cama y/o enfermedad&lt;/div&gt;&lt;div&gt;3)PTO2EXT&lt;/div&gt;&lt;div&gt;4) este caso de uso finaliza&lt;/div&gt;&lt;div&gt;&lt;br&gt;&lt;/div&gt;&lt;div&gt;&lt;br&gt;&lt;/div&gt;&lt;div&gt;Caso de uso que extiende del caso de uso Generar Reporte&lt;/div&gt;" style="text;html=1;whiteSpace=wrap;overflow=hidden;rounded=0;" vertex="1" parent="1">
          <mxGeometry x="-580" y="650" width="430" height="350" as="geometry" />
        </mxCell>
        <mxCell id="ucri7VdKYtl2Kycha0CK-31" value="&lt;h1 style=&quot;margin-top: 0px;&quot;&gt;&lt;span style=&quot;background-color: initial;&quot;&gt;Especificacion Agregar Hospital&lt;/span&gt;&lt;br&gt;&lt;/h1&gt;&lt;div&gt;Nombre: Agregar Hospital&lt;/div&gt;&lt;div&gt;Descripcion: Este caso de uso sirve para agregar un hospital&amp;nbsp;&lt;/div&gt;&lt;div&gt;Actor Primario: IT Responsable&lt;/div&gt;&lt;div&gt;Trigger: Este caso de uso comienza cuando se quiere agregar un hospital&lt;/div&gt;&lt;div&gt;&lt;br&gt;&lt;/div&gt;&lt;div&gt;Curso Basico:&lt;/div&gt;&lt;div&gt;1) El sistema solicita el nombre,zona sanitaria, ciudad y direccion&lt;/div&gt;&lt;div&gt;2)El respondable de IT responde los datos al sistema&lt;/div&gt;&lt;div&gt;3) Este caso de uso finaliza&lt;/div&gt;" style="text;html=1;whiteSpace=wrap;overflow=hidden;rounded=0;" vertex="1" parent="1">
          <mxGeometry x="-340" y="-410" width="392" height="220" as="geometry" />
        </mxCell>
        <mxCell id="ucri7VdKYtl2Kycha0CK-33" value="&lt;h1 style=&quot;margin-top: 0px;&quot;&gt;Especificacion Crear Usuario&lt;/h1&gt;&lt;p&gt;Nombre: Crear Usuario&lt;/p&gt;&lt;p&gt;Descripcion: Este caso de uso se tuliza para crear usuarios responsables de hospitales.&lt;/p&gt;&lt;p&gt;Actor Primario: IT Responsable&lt;/p&gt;&lt;p&gt;Trigger: Este caso de uso comienza cuando se quiere crear un usuario nuevo&amp;nbsp;&lt;/p&gt;&lt;p&gt;Curso basico:&lt;/p&gt;&lt;p&gt;1) El sistema&amp;nbsp; solicita al responsable IT los datos del usuario:&amp;nbsp;&lt;/p&gt;&lt;p&gt;&lt;/p&gt;&lt;ul&gt;&lt;li&gt;nombre&lt;/li&gt;&lt;li&gt;apellido&lt;/li&gt;&lt;li&gt;nombre de usuario&lt;/li&gt;&lt;li&gt;contraseÃ±a&lt;/li&gt;&lt;li&gt;casilla de email&amp;nbsp;&lt;/li&gt;&lt;/ul&gt;&lt;p&gt;&lt;/p&gt;&lt;p&gt;2) El responsable IT responde la solicitud del sistema&lt;/p&gt;&lt;p&gt;3) El sistema solicita que se seleccione el hospital de cual sera responsable&lt;/p&gt;&lt;p&gt;4) El responsable de IT responde la solicitud del sistema para seleccionar el hospital del usuario&lt;/p&gt;&lt;p&gt;5) El sistema envia un email a la casilla de email suministrada informando los datos de acceso&lt;/p&gt;&lt;p&gt;6) Este caso de uso finaliza&lt;/p&gt;" style="text;html=1;whiteSpace=wrap;overflow=hidden;rounded=0;" vertex="1" parent="1">
          <mxGeometry x="-1070" y="-530" width="540" height="490" as="geometry" />
        </mxCell>
        <mxCell id="ucri7VdKYtl2Kycha0CK-35" style="edgeStyle=orthogonalEdgeStyle;rounded=0;orthogonalLoop=1;jettySize=auto;html=1;exitX=0;exitY=0.3333333333333333;exitDx=0;exitDy=0;exitPerimeter=0;entryX=1;entryY=0;entryDx=0;entryDy=0;endArrow=none;endFill=0;" edge="1" parent="1" source="ucri7VdKYtl2Kycha0CK-34" target="ucri7VdKYtl2Kycha0CK-22">
          <mxGeometry relative="1" as="geometry" />
        </mxCell>
        <mxCell id="ucri7VdKYtl2Kycha0CK-34" value="MINISTERIO&lt;div&gt;DE SALUD&lt;/div&gt;&lt;div&gt;Cliente&lt;/div&gt;" style="shape=umlActor;verticalLabelPosition=bottom;verticalAlign=top;html=1;outlineConnect=0;" vertex="1" parent="1">
          <mxGeometry x="-190" y="421" width="30" height="60" as="geometry" />
        </mxCell>
      </root>
    </mxGraphModel>
  </diagram>
</mxfile>
